<?xml version="1.0" encoding="utf-8"?>
<svg version="1.1" xmlns:xlink="http://www.w3.org/1999/xlink" width="37px" height="43px" xmlns="http://www.w3.org/2000/svg">
  <g transform="matrix(1 0 0 1 -65 -146 )">
    <path d="M 27.8463541666667 1.63169642857143  L 35.3619791666667 9.11830357142857  C 35.8116319444445 9.56622023809524  36.1970486111111 10.1741071428571  36.5182291666667 10.9419642857143  C 36.8394097222222 11.7098214285714  37 12.4136904761905  37 13.0535714285714  L 37 40.6964285714286  C 37 41.3363095238095  36.7751736111111 41.8802083333333  36.3255208333333 42.328125  C 35.8758680555556 42.7760416666667  35.3298611111111 43  34.6875 43  L 2.3125 43  C 1.67013888888889 43  1.12413194444444 42.7760416666667  0.674479166666667 42.328125  C 0.224826388888889 41.8802083333333  0 41.3363095238095  0 40.6964285714286  L 0 2.30357142857143  C 0 1.66369047619047  0.224826388888889 1.11979166666667  0.674479166666667 0.671875  C 1.12413194444444 0.223958333333335  1.67013888888889 0  2.3125 0  L 23.8958333333333 0  C 24.5381944444444 0  25.2447916666667 0.15997023809524  26.015625 0.479910714285715  C 26.7864583333333 0.79985119047619  27.3967013888889 1.18377976190476  27.8463541666667 1.63169642857143  Z M 25.654296875 3.79129464285715  C 25.4615885416667 3.59933035714286  25.1323784722222 3.42336309523809  24.6666666666667 3.26339285714286  L 24.6666666666667 12.2857142857143  L 33.7239583333333 12.2857142857143  C 33.5633680555556 11.8218005952381  33.38671875 11.4938616071429  33.1940104166667 11.3018973214286  L 25.654296875 3.79129464285715  Z M 3 40  L 34 40  L 34 16  L 23.8958333333333 16  C 23.2534722222222 15.3571428571429  22.7074652777778 15.1331845238095  22.2578125 14.6852678571429  C 21.8081597222222 14.2373511904762  21.5833333333333 13.6934523809524  21.5833333333333 13.0535714285714  L 21.5833333333333 3  L 3 3  L 3 40  Z M 12.8391927083333 18.4285714285714  L 5.61263020833333 18.4285714285714  L 5.61263020833333 20.99609375  L 7.298828125 20.99609375  L 11.2493489583333 36.8571428571429  L 15.0794270833333 36.8571428571429  L 18.1627604166667 25.2193080357143  C 18.2751736111111 24.8993675595238  18.35546875 24.5314360119048  18.4036458333333 24.1155133928571  C 18.4357638888889 23.8595610119048  18.4518229166667 23.6675967261905  18.4518229166667 23.5396205357143  L 18.5481770833333 23.5396205357143  L 18.6204427083333 24.1155133928571  C 18.6365017361111 24.1635044642857  18.6646050347222 24.3234747023809  18.7047526041667 24.5954241071429  C 18.7449001736111 24.8673735119048  18.7890625 25.0753348214286  18.8372395833333 25.2193080357143  L 21.9205729166667 36.8571428571429  L 25.7506510416667 36.8571428571429  L 29.701171875 20.99609375  L 31.3873697916667 20.99609375  L 31.3873697916667 18.4285714285714  L 24.1608072916667 18.4285714285714  L 24.1608072916667 20.99609375  L 26.3287760416667 20.99609375  L 23.9440104166667 31.5061383928571  C 23.8637152777778 31.8260788690476  23.8075086805556 32.1940104166667  23.775390625 32.6099330357143  L 23.7272135416667 33.1138392857143  L 23.630859375 33.1138392857143  C 23.630859375 33.0658482142857  23.6268446180556 33.0138578869048  23.6188151041667 32.9578683035714  C 23.6107855902778 32.9018787202381  23.5987413194444 32.837890625  23.5826822916667 32.7659040178571  C 23.5666232638889 32.6939174107143  23.55859375 32.6419270833333  23.55859375 32.6099330357143  C 23.5425347222222 32.5299479166667  23.5104166666667 32.3619791666667  23.4622395833333 32.1060267857143  C 23.4140625 31.8500744047619  23.3739149305556 31.6501116071429  23.341796875 31.5061383928571  L 19.873046875 18.4285714285714  L 17.126953125 18.4285714285714  L 13.658203125 31.5061383928571  C 13.6260850694444 31.6501116071429  13.5899522569444 31.8460751488095  13.5498046875 32.0940290178571  C 13.5096571180556 32.3419828869048  13.4815538194444 32.5139508928571  13.4654947916667 32.6099330357143  L 13.369140625 33.1138392857143  L 13.2727864583333 33.1138392857143  L 13.224609375 32.6099330357143  C 13.1924913194444 32.1940104166667  13.1362847222222 31.8260788690476  13.0559895833333 31.5061383928571  L 10.6712239583333 20.99609375  L 12.8391927083333 20.99609375  L 12.8391927083333 18.4285714285714  Z " fill-rule="nonzero" fill="#000000" stroke="none" transform="matrix(1 0 0 1 65 146 )" />
  </g>
</svg>