<?xml version="1.0" encoding="utf-8"?>
<svg version="1.1" xmlns:xlink="http://www.w3.org/1999/xlink" width="43px" height="43px" xmlns="http://www.w3.org/2000/svg">
  <g transform="matrix(1 0 0 1 -15 -161 )">
    <path d="M 9.01401584399756 36.3524041387705  C 9.34592728011375 36.0208967336174  9.51188299817185 35.6283221748833  9.51188299817185 35.1746804625685  C 9.51188299817185 34.7210387502536  9.34592728011375 34.3284641915196  9.01401584399756 33.9969567863664  C 8.68210440788137 33.6654493812132  8.28905139142799 33.4996956786366  7.83485679463742 33.4996956786366  C 7.38066219784684 33.4996956786366  6.98760918139346 33.6654493812132  6.65569774527727 33.9969567863664  C 6.32378630916108 34.3284641915196  6.15783059110299 34.7210387502536  6.15783059110299 35.1746804625685  C 6.15783059110299 35.6283221748833  6.32378630916108 36.0208967336174  6.65569774527727 36.3524041387705  C 6.98760918139346 36.6839115439237  7.38066219784684 36.8496652465003  7.83485679463742 36.8496652465003  C 8.28905139142799 36.8496652465003  8.68210440788137 36.6839115439237  9.01401584399756 36.3524041387705  Z M 21.8406459475929 21.1859403530128  C 23.159557180581 22.5032460945425  24.6749949217957 23.5021302495435  26.3869591712371 24.1825928180158  L 8.51614868982328 42.0316494217894  C 7.86979484054438 42.6772164739298  7.08368880763762 43  6.15783059110299 43  C 5.24944139752184 43  4.45460085313833 42.6772164739298  3.77330895795247 42.0316494217894  L 0.995734308348568 39.2051125989044  C 0.331911436116189 38.57699330493  0 37.791844187462  0 36.8496652465003  C 0 35.9249340637046  0.331911436116189 35.1310610671536  0.995734308348568 34.4680462568472  L 18.8403412553321 16.6451612903226  C 19.521633150518 18.3550415905863  20.5217347146049 19.8686346114831  21.8406459475929 21.1859403530128  Z M 42.7772699573431 12.1436396835058  C 42.9257566524477 12.3181172651653  43 12.5362142422398  43 12.7979306147292  C 43 13.4783931832015  42.7991062360349 14.4031243659972  42.3973187081048 15.5721241631163  C 41.5762746292911 17.9101237573544  40.1394474913671 19.8075674579022  38.0868372943327 21.2644552647596  C 36.0342270972984 22.721343071617  33.7763558805606 23.4497869750456  31.3132236441194 23.4497869750456  C 28.081454397725 23.4497869750456  25.3169815153362 22.302596875634  23.0198049969531 20.0082166768107  C 20.72262847857 17.7138364779874  19.5740402193784 14.9527287482248  19.5740402193784 11.7248934875228  C 19.5740402193784 8.49705822682085  20.72262847857 5.73595049705823  23.0198049969531 3.44157029823494  C 25.3169815153362 1.14719009941164  28.081454397725 0  31.3132236441194 0  C 32.3264269754215 0  33.3876701198456 0.143944004869144  34.4969530773918 0.431832014607427  C 35.6062360349381 0.71972002434571  36.5451960186878 1.1253804017042  37.3138330286411 1.6488131466829  C 37.5933373958968 1.84073848650842  37.7330895795247 2.08500710083181  37.7330895795247 2.38161898965307  C 37.7330895795247 2.67823087847433  37.5933373958968 2.92249949279772  37.3138330286411 3.11442483262325  L 29.636197440585 7.53743152769324  L 29.636197440585 13.3998782714547  L 34.6934795856185 16.2002434570907  C 34.7808247003859 16.1479001825928  35.4708511070486 15.7247920470684  36.7635588056063 14.9309190505173  C 38.0562665041641 14.1370460539663  39.2397928092626 13.4304118482451  40.3141377209019 12.8110164333536  C 41.3884826325411 12.1916210184622  42.0042656916514 11.8819233110164  42.1614868982328 11.8819233110164  C 42.423522242535 11.8819233110164  42.6287832622385 11.9691621018462  42.7772699573431 12.1436396835058  Z " fill-rule="nonzero" fill="#555555" stroke="none" transform="matrix(1 0 0 1 15 161 )" />
  </g>
</svg>