<?xml version="1.0" encoding="utf-8"?>
<svg version="1.1" xmlns:xlink="http://www.w3.org/1999/xlink" width="35px" height="35px" xmlns="http://www.w3.org/2000/svg">
  <g transform="matrix(1 0 0 1 -327 -73 )">
    <path d="M 22.7408854166667 22.3763020833333  C 24.1384548611111 21.0698784722222  25.7942708333333 20.4166666666667  27.7083333333333 20.4166666666667  C 29.7287326388889 20.4166666666667  31.4491102430556 21.1268446180556  32.8694661458333 22.5472005208333  C 34.2898220486111 23.9675564236111  35 25.6879340277778  35 27.7083333333333  C 35 29.7287326388889  34.2898220486111 31.4491102430556  32.8694661458333 32.8694661458333  C 31.4491102430556 34.2898220486111  29.7287326388889 35  27.7083333333333 35  C 25.6879340277778 35  23.9675564236111 34.2898220486111  22.5472005208333 32.8694661458333  C 21.1268446180556 31.4491102430556  20.4166666666667 29.7287326388889  20.4166666666667 27.7083333333333  C 20.4166666666667 27.5260416666667  20.4318576388889 27.2677951388889  20.4622395833333 26.93359375  L 12.2591145833333 22.83203125  C 10.8615451388889 24.1384548611111  9.20572916666667 24.7916666666667  7.29166666666667 24.7916666666667  C 5.27126736111111 24.7916666666667  3.55088975694444 24.0814887152778  2.13053385416667 22.6611328125  C 0.710177951388889 21.2407769097222  0 19.5203993055556  0 17.5  C 0 15.4796006944444  0.710177951388889 13.7592230902778  2.13053385416667 12.3388671875  C 3.55088975694444 10.9185112847222  5.27126736111111 10.2083333333333  7.29166666666667 10.2083333333333  C 9.20572916666667 10.2083333333333  10.8615451388889 10.8615451388889  12.2591145833333 12.16796875  L 20.4622395833333 8.06640625  C 20.4318576388889 7.73220486111111  20.4166666666667 7.47395833333333  20.4166666666667 7.29166666666667  C 20.4166666666667 5.27126736111111  21.1268446180556 3.55088975694444  22.5472005208333 2.13053385416667  C 23.9675564236111 0.710177951388887  25.6879340277778 0  27.7083333333333 0  C 29.7287326388889 0  31.4491102430556 0.710177951388887  32.8694661458333 2.13053385416667  C 34.2898220486111 3.55088975694444  35 5.27126736111111  35 7.29166666666667  C 35 9.31206597222222  34.2898220486111 11.0324435763889  32.8694661458333 12.4527994791667  C 31.4491102430556 13.8731553819444  29.7287326388889 14.5833333333333  27.7083333333333 14.5833333333333  C 25.7942708333333 14.5833333333333  24.1384548611111 13.9301215277778  22.7408854166667 12.6236979166667  L 14.5377604166667 16.7252604166667  C 14.5681423611111 17.0594618055556  14.5833333333333 17.3177083333333  14.5833333333333 17.5  C 14.5833333333333 17.6822916666667  14.5681423611111 17.9405381944444  14.5377604166667 18.2747395833333  L 22.7408854166667 22.3763020833333  Z " fill-rule="nonzero" fill="#ffffff" stroke="none" transform="matrix(1 0 0 1 327 73 )" />
  </g>
</svg>