<?xml version="1.0" encoding="utf-8"?>
<svg version="1.1" xmlns:xlink="http://www.w3.org/1999/xlink" width="27px" height="30px" xmlns="http://www.w3.org/2000/svg">
  <g transform="matrix(1 0 0 1 -177 -328 )">
    <path d="M 20.3203125 1.13839285714286  L 25.8046875 6.36160714285714  C 26.1328125 6.67410714285714  26.4140625 7.09821428571429  26.6484375 7.63392857142857  C 26.8828125 8.16964285714286  27 8.66071428571428  27 9.10714285714286  L 27 28.3928571428571  C 27 28.8392857142857  26.8359375 29.21875  26.5078125 29.53125  C 26.1796875 29.84375  25.78125 30  25.3125 30  L 1.6875 30  C 1.21875 30  0.8203125 29.84375  0.4921875 29.53125  C 0.1640625 29.21875  0 28.8392857142857  0 28.3928571428571  L 0 1.60714285714286  C 0 1.16071428571428  0.1640625 0.781249999999999  0.4921875 0.46875  C 0.8203125 0.156250000000001  1.21875 0  1.6875 0  L 17.4375 0  C 17.90625 0  18.421875 0.111607142857144  18.984375 0.334821428571429  C 19.546875 0.558035714285714  19.9921875 0.825892857142856  20.3203125 1.13839285714286  Z M 18.720703125 2.64508928571429  C 18.580078125 2.51116071428571  18.33984375 2.38839285714285  18 2.27678571428571  L 18 8.57142857142857  L 24.609375 8.57142857142857  C 24.4921875 8.24776785714285  24.36328125 8.01897321428571  24.22265625 7.88504464285714  L 18.720703125 2.64508928571429  Z M 2.25 27.8571428571429  L 24.75 27.8571428571429  L 24.75 10.7142857142857  L 17.4375 10.7142857142857  C 16.96875 10.7142857142857  16.5703125 10.5580357142857  16.2421875 10.2455357142857  C 15.9140625 9.93303571428571  15.75 9.55357142857143  15.75 9.10714285714286  L 15.75 2.14285714285714  L 2.25 2.14285714285714  L 2.25 27.8571428571429  Z M 8.9296875 23.9397321428571  L 7.3125 23.9397321428571  L 7.3125 25.7142857142857  L 13.060546875 25.7142857142857  L 13.060546875 23.9397321428571  L 11.42578125 23.9397321428571  L 11.42578125 21.1439732142857  L 13.833984375 21.1439732142857  C 14.724609375 21.1439732142857  15.416015625 21.0602678571429  15.908203125 20.8928571428571  C 16.693359375 20.6361607142857  17.3173828125 20.1506696428571  17.7802734375 19.4363839285714  C 18.2431640625 18.7220982142857  18.474609375 17.9073660714286  18.474609375 16.9921875  C 18.474609375 16.0881696428571  18.2578125 15.3013392857143  17.82421875 14.6316964285714  C 17.390625 13.9620535714286  16.8046875 13.4765625  16.06640625 13.1752232142857  C 15.50390625 12.9631696428571  14.7421875 12.8571428571429  13.78125 12.8571428571429  L 7.3125 12.8571428571429  L 7.3125 14.6484375  L 8.9296875 14.6484375  L 8.9296875 23.9397321428571  Z M 14.888671875 19.0011160714286  C 14.525390625 19.1685267857143  14.068359375 19.2522321428571  13.517578125 19.2522321428571  L 11.42578125 19.2522321428571  L 11.42578125 14.765625  L 13.53515625 14.765625  C 14.14453125 14.765625  14.630859375 14.8660714285714  14.994140625 15.0669642857143  C 15.650390625 15.4352678571429  15.978515625 16.0770089285714  15.978515625 16.9921875  C 15.978515625 17.9854910714286  15.615234375 18.6551339285714  14.888671875 19.0011160714286  Z " fill-rule="nonzero" fill="#7f7f7f" stroke="none" transform="matrix(1 0 0 1 177 328 )" />
  </g>
</svg>