<?xml version="1.0" encoding="utf-8"?>
<svg version="1.1" xmlns:xlink="http://www.w3.org/1999/xlink" width="27px" height="31px" xmlns="http://www.w3.org/2000/svg">
  <g transform="matrix(1 0 0 1 -177 -516 )">
    <path d="M 20.3203125 1.17633928571429  L 25.8046875 6.57366071428571  C 26.1328125 6.89657738095238  26.4140625 7.33482142857143  26.6484375 7.88839285714286  C 26.8828125 8.44196428571429  27 8.94940476190476  27 9.41071428571429  L 27 29.3392857142857  C 27 29.8005952380952  26.8359375 30.1927083333333  26.5078125 30.515625  C 26.1796875 30.8385416666667  25.78125 31  25.3125 31  L 1.6875 31  C 1.21875 31  0.8203125 30.8385416666667  0.4921875 30.515625  C 0.1640625 30.1927083333333  0 29.8005952380952  0 29.3392857142857  L 0 1.66071428571429  C 0 1.19940476190476  0.1640625 0.807291666666666  0.4921875 0.484375  C 0.8203125 0.161458333333334  1.21875 0  1.6875 0  L 17.4375 0  C 17.90625 0  18.421875 0.115327380952382  18.984375 0.345982142857143  C 19.546875 0.576636904761904  19.9921875 0.853422619047618  20.3203125 1.17633928571429  Z M 18.720703125 2.73325892857143  C 18.580078125 2.59486607142857  18.33984375 2.46800595238095  18 2.35267857142857  L 18 8.85714285714286  L 24.609375 8.85714285714286  C 24.4921875 8.52269345238095  24.36328125 8.28627232142857  24.22265625 8.14787946428571  L 18.720703125 2.73325892857143  Z M 2.25 28.7857142857143  L 24.75 28.7857142857143  L 24.75 11.0714285714286  L 17.4375 11.0714285714286  C 16.96875 11.0714285714286  16.5703125 10.9099702380952  16.2421875 10.5870535714286  C 15.9140625 10.2641369047619  15.75 9.8720238095238  15.75 9.41071428571429  L 15.75 2.21428571428571  L 2.25 2.21428571428571  L 2.25 28.7857142857143  Z M 8.736328125 24.7377232142857  L 7.541015625 24.7377232142857  L 7.541015625 26.5714285714286  L 12.48046875 26.5714285714286  L 12.48046875 24.7377232142857  L 11.162109375 24.7377232142857  L 12.97265625 21.9525669642857  C 13.03125 21.871837797619  13.08984375 21.7766927083333  13.1484375 21.6671316964286  C 13.20703125 21.5575706845238  13.2509765625 21.4797247023809  13.2802734375 21.43359375  C 13.3095703125 21.387462797619  13.330078125 21.3643973214286  13.341796875 21.3643973214286  L 13.376953125 21.3643973214286  C 13.388671875 21.4105282738095  13.41796875 21.4681919642857  13.46484375 21.5373883928571  C 13.48828125 21.5835193452381  13.5146484375 21.6267671130952  13.5439453125 21.6671316964286  C 13.5732421875 21.7074962797619  13.6083984375 21.7536272321429  13.6494140625 21.8055245535714  C 13.6904296875 21.857421875  13.728515625 21.9064360119048  13.763671875 21.9525669642857  L 15.64453125 24.7377232142857  L 14.30859375 24.7377232142857  L 14.30859375 26.5714285714286  L 19.423828125 26.5714285714286  L 19.423828125 24.7377232142857  L 18.228515625 24.7377232142857  L 14.853515625 20.0150669642857  L 18.28125 15.13671875  L 19.458984375 15.13671875  L 19.458984375 13.2857142857143  L 14.5546875 13.2857142857143  L 14.5546875 15.13671875  L 15.85546875 15.13671875  L 14.044921875 17.8872767857143  C 13.998046875 17.968005952381  13.939453125 18.0631510416667  13.869140625 18.1727120535714  C 13.798828125 18.2822730654762  13.74609375 18.360119047619  13.7109375 18.40625  L 13.67578125 18.4581473214286  L 13.640625 18.4581473214286  C 13.62890625 18.4120163690476  13.599609375 18.3543526785714  13.552734375 18.28515625  C 13.482421875 18.1582961309524  13.3828125 18.0256696428571  13.25390625 17.8872767857143  L 11.390625 15.13671875  L 12.7265625 15.13671875  L 12.7265625 13.2857142857143  L 7.62890625 13.2857142857143  L 7.62890625 15.13671875  L 8.82421875 15.13671875  L 12.146484375 19.8420758928571  L 8.736328125 24.7377232142857  Z " fill-rule="nonzero" fill="#7f7f7f" stroke="none" transform="matrix(1 0 0 1 177 516 )" />
  </g>
</svg>