<?xml version="1.0" encoding="utf-8"?>
<svg version="1.1" xmlns:xlink="http://www.w3.org/1999/xlink" width="26px" height="24px" xmlns="http://www.w3.org/2000/svg">
  <g transform="matrix(1 0 0 1 -15 -18 )">
    <path d="M 25.6783854166667 19.55625  C 25.8927951388889 19.79375  26 20.075  26 20.4  L 26 22.8  C 26 23.125  25.8927951388889 23.40625  25.6783854166667 23.64375  C 25.4639756944444 23.88125  25.2100694444444 24  24.9166666666667 24  L 1.08333333333333 24  C 0.789930555555556 24  0.536024305555556 23.88125  0.321614583333333 23.64375  C 0.107204861111111 23.40625  0 23.125  0 22.8  L 0 20.4  C 0 20.075  0.107204861111111 19.79375  0.321614583333333 19.55625  C 0.536024305555556 19.31875  0.789930555555556 19.2  1.08333333333333 19  L 24.9166666666667 19  C 25.2100694444444 19.2  25.4639756944444 19.31875  25.6783854166667 19.55625  Z M 25.6783854166667 9.95625  C 25.8927951388889 10.19375  26 10.475  26 10.8  L 26 13.2  C 26 13.525  25.8927951388889 13.80625  25.6783854166667 14.04375  C 25.4639756944444 14.28125  25.2100694444444 14.4  24.9166666666667 14  L 1.08333333333333 14  C 0.789930555555556 14.4  0.536024305555556 14.28125  0.321614583333333 14.04375  C 0.107204861111111 13.80625  0 13.525  0 13.2  L 0 10.8  C 0 10.475  0.107204861111111 10.19375  0.321614583333333 9.95625  C 0.536024305555556 9.71875  0.789930555555556 9.6  1.08333333333333 10  L 24.9166666666667 10  C 25.2100694444444 9.6  25.4639756944444 9.71875  25.6783854166667 9.95625  Z M 25.6783854166667 0.356250000000001  C 25.8927951388889 0.593749999999998  26 0.874999999999998  26 1.2  L 26 3.6  C 26 3.925  25.8927951388889 4.20625  25.6783854166667 4.44375  C 25.4639756944444 4.68125  25.2100694444444 4.8  24.9166666666667 5  L 1.08333333333333 5  C 0.789930555555556 4.8  0.536024305555556 4.68125  0.321614583333333 4.44375  C 0.107204861111111 4.20625  0 3.925  0 3.6  L 0 1.2  C 0 0.874999999999998  0.107204861111111 0.593749999999998  0.321614583333333 0.356250000000001  C 0.536024305555556 0.118749999999999  0.789930555555556 0  1.08333333333333 0  L 24.9166666666667 0  C 25.2100694444444 0  25.4639756944444 0.118749999999999  25.6783854166667 0.356250000000001  Z " fill-rule="nonzero" fill="#ffffff" stroke="none" transform="matrix(1 0 0 1 15 18 )" />
  </g>
</svg>