<?xml version="1.0" encoding="utf-8"?>
<svg version="1.1" xmlns:xlink="http://www.w3.org/1999/xlink" width="62px" height="62px" xmlns="http://www.w3.org/2000/svg">
  <g transform="matrix(1 0 0 1 -157 -584 )">
    <path d="M 48.31640625 35.3997395833333  C 48.8276909722222 34.8884548611111  49.0833333333333 34.2829861111111  49.0833333333333 33.5833333333333  L 49.0833333333333 28.4166666666667  C 49.0833333333333 27.7170138888889  48.8276909722222 27.1115451388889  48.31640625 26.6002604166667  C 47.8051215277778 26.0889756944444  47.1996527777778 25.8333333333333  46.5 26  L 36 26  L 36 15.5  C 36.1666666666667 14.8003472222222  35.9110243055556 14.1948784722222  35.3997395833333 13.68359375  C 34.8884548611111 13.1723090277778  34.2829861111111 12.9166666666667  33.5833333333333 12.9166666666667  L 28.4166666666667 12.9166666666667  C 27.7170138888889 12.9166666666667  27.1115451388889 13.1723090277778  26.6002604166667 13.68359375  C 26.0889756944444 14.1948784722222  25.8333333333333 14.8003472222222  26 15.5  L 26 26  L 15.5 26  C 14.8003472222222 25.8333333333333  14.1948784722222 26.0889756944444  13.68359375 26.6002604166667  C 13.1723090277778 27.1115451388889  12.9166666666667 27.7170138888889  12.9166666666667 28.4166666666667  L 12.9166666666667 33.5833333333333  C 12.9166666666667 34.2829861111111  13.1723090277778 34.8884548611111  13.68359375 35.3997395833333  C 14.1948784722222 35.9110243055556  14.8003472222222 36.1666666666667  15.5 36  L 26 36  L 26 46.5  C 25.8333333333333 47.1996527777778  26.0889756944444 47.8051215277778  26.6002604166667 48.31640625  C 27.1115451388889 48.8276909722222  27.7170138888889 49.0833333333333  28.4166666666667 49.0833333333333  L 33.5833333333333 49.0833333333333  C 34.2829861111111 49.0833333333333  34.8884548611111 48.8276909722222  35.3997395833333 48.31640625  C 35.9110243055556 47.8051215277778  36.1666666666667 47.1996527777778  36 46.5  L 36 36  L 46.5 36  C 47.1996527777778 36.1666666666667  47.8051215277778 35.9110243055556  48.31640625 35.3997395833333  Z M 57.8424479166667 15.439453125  C 60.6141493055556 20.1890190972222  62 25.3758680555555  62 31  C 62 36.6241319444444  60.6141493055556 41.8109809027778  57.8424479166667 46.560546875  C 55.0707465277778 51.3101128472222  51.3101128472222 55.0707465277778  46.560546875 57.8424479166667  C 41.8109809027778 60.6141493055556  36.6241319444444 62  31 62  C 25.3758680555556 62  20.1890190972222 60.6141493055556  15.439453125 57.8424479166667  C 10.6898871527778 55.0707465277778  6.92925347222222 51.3101128472222  4.15755208333333 46.560546875  C 1.38585069444444 41.8109809027778  0 36.6241319444444  0 31  C 0 25.3758680555555  1.38585069444444 20.1890190972222  4.15755208333333 15.439453125  C 6.92925347222222 10.6898871527778  10.6898871527778 6.92925347222222  15.439453125 4.15755208333333  C 20.1890190972222 1.38585069444444  25.3758680555556 0  31 0  C 36.6241319444444 0  41.8109809027778 1.38585069444444  46.560546875 4.15755208333333  C 51.3101128472222 6.92925347222222  55.0707465277778 10.6898871527778  57.8424479166667 15.439453125  Z " fill-rule="nonzero" fill="#555555" stroke="none" transform="matrix(1 0 0 1 157 584 )" />
  </g>
</svg>