<?xml version="1.0" encoding="utf-8"?>
<svg version="1.1" xmlns:xlink="http://www.w3.org/1999/xlink" width="24px" height="21px" xmlns="http://www.w3.org/2000/svg">
  <g transform="matrix(1 0 0 1 -333 -73 )">
    <path d="M 20.0312687913409 11.5291193181818  C 20.2236921226699 11.6086647727273  20.3199037883343 11.7528409090909  20.3199037883343 11.9616477272727  L 20.3199037883343 16.7045454545455  C 20.3199037883343 17.8877840909091  19.913409500902 18.8995028409091  19.1004209260373 19.7397017045455  C 18.2874323511726 20.5799005681818  17.3084786530367 21  16.1635598316296 21  L 4.15634395670475 21  C 3.01142513529766 21  2.03247143716176 20.5799005681818  1.21948286229705 19.7397017045455  C 0.406494287432351 18.8995028409091  0 17.8877840909091  0 16.7045454545455  L 0 4.29545454545455  C 0 3.11221590909091  0.406494287432351 2.10049715909091  1.21948286229705 1.26029829545455  C 2.03247143716176 0.42009943181818  3.01142513529766 0  4.15634395670475 0  L 16.1635598316296 0  C 16.7696933253157 0  17.3325315694528 0.124289772727272  17.8520745640409 0.372869318181817  C 17.9963920625376 0.44247159090909  18.0829825616356 0.556818181818181  18.1118460613349 0.71590909090909  C 18.1407095610343 0.884943181818181  18.0974143114853 1.02911931818182  17.9819603126879 1.1484375  L 17.2748045700541 1.87926136363636  C 17.1785929043897 1.97869318181818  17.0679494888755 2.02840909090909  16.9428743235117 2.02840909090909  C 16.9140108238124 2.02840909090909  16.8707155742634 2.01846590909091  16.8129885748647 1.99857954545455  C 16.5917017438364 1.93892045454545  16.3752254960914 1.90909090909091  16.1635598316296 2  L 4.15634395670475 2  C 3.5213469633193 1.90909090909091  2.97775105231509 2.14275568181818  2.52555622369212 2.61008522727273  C 2.07336139506915 3.07741477272727  1.84726398075767 3.63920454545455  2 4.29545454545455  L 2 16.7045454545455  C 1.84726398075767 17.3607954545455  2.07336139506915 17.9225852272727  2.52555622369212 18.3899147727273  C 2.97775105231509 18.8572443181818  3.5213469633193 19.0909090909091  4.15634395670475 19  L 16.1635598316296 19  C 16.798556825015 19.0909090909091  17.3421527360192 18.8572443181818  17.7943475646422 18.3899147727273  C 18.2465423932652 17.9225852272727  18.4726398075767 17.3607954545455  18.4726398075767 16.7045454545455  L 18.4726398075767 12.9161931818182  C 18.4726398075767 12.7869318181818  18.5159350571257 12.6775568181818  18.6025255562237 12.5880681818182  L 19.5261575466025 11.6335227272727  C 19.622369212267 11.5340909090909  19.7330126277811 11.484375  19.8580877931449 11.484375  C 19.9158147925436 11.484375  19.9735417919423 11.4992897727273  20.0312687913409 11.5291193181818  Z M 24 3.81818181818182  C 24 4.14630681818182  23.8845460012026 4.4296875  23.6536380036079 4.66832386363636  L 11.9061936259771 16.8089488636364  C 11.6752856283824 17.0475852272727  11.4010823812387 17.1669034090909  11.083583884546 17.1669034090909  C 10.7660853878533 17.1669034090909  10.4918821407096 17.0475852272727  10.2609741431149 16.8089488636364  L 4.05532170775707 10.3955965909091  C 3.82441371016236 10.1569602272727  3.708959711365 9.87357954545455  3.708959711365 9.54545454545455  C 3.708959711365 9.21732954545454  3.82441371016236 8.93394886363636  4.05532170775707 8.6953125  L 5.64281419122069 7.0546875  C 5.87372218881539 6.81605113636364  6.14792543595911 6.69673295454545  6.46542393265183 6.69673295454545  C 6.78292242934456 6.69673295454545  7.05712567648827 6.81605113636364  7.28803367408298 7.0546875  L 11.083583884546 10.9772727272727  L 20.420926037282 1.32741477272727  C 20.6518340348767 1.08877840909091  20.9260372820204 0.969460227272727  21.2435357787132 0.969460227272727  C 21.5610342754059 0.969460227272727  21.8352375225496 1.08877840909091  22.0661455201443 1.32741477272727  L 23.6536380036079 2.96803977272727  C 23.8845460012026 3.20667613636364  24 3.49005681818182  24 3.81818181818182  Z " fill-rule="nonzero" fill="#000000" stroke="none" transform="matrix(1 0 0 1 333 73 )" />
  </g>
</svg>