<?xml version="1.0" encoding="utf-8"?>
<svg version="1.1" xmlns:xlink="http://www.w3.org/1999/xlink" width="36px" height="36px" xmlns="http://www.w3.org/2000/svg">
  <g transform="matrix(1 0 0 1 -1183 -541 )">
    <path d="M 7.54661791590494 30.4345709068777  C 7.82449725776965 30.1570298234936  7.96343692870201 29.8283627510651  7.96343692870201 29.4485696895922  C 7.96343692870201 29.0687766281193  7.82449725776965 28.7401095556908  7.54661791590494 28.4625684723068  C 7.26873857404022 28.1850273889227  6.93967093235832 28.0462568472307  6.55941499085923 28.0462568472307  C 6.17915904936015 28.0462568472307  5.85009140767825 28.1850273889227  5.57221206581353 28.4625684723068  C 5.29433272394881 28.7401095556908  5.15539305301645 29.0687766281193  5.15539305301645 29.4485696895922  C 5.15539305301645 29.8283627510651  5.29433272394881 30.1570298234936  5.57221206581353 30.4345709068777  C 5.85009140767825 30.7121119902617  6.17915904936015 30.8508825319537  6.55941499085923 30.8508825319537  C 6.93967093235832 30.8508825319537  7.26873857404022 30.7121119902617  7.54661791590494 30.4345709068777  Z M 18.2851919561243 17.7370663420572  C 19.3893967093236 18.8399269628728  20.6581352833638 19.6762020693853  22.091407678245 20.2458916615946  L 7.12979890310786 35.1892878880097  C 6.58866544789762 35.7297626293366  5.93053016453382 36  5.15539305301645 36  C 4.39488117001828 36  3.72943327239488 35.7297626293366  3.15904936014625 35.1892878880097  L 0.83363802559415 32.8228849665246  C 0.277879341864717 32.2970176506391  0 31.6396835057821  0 30.8508825319537  C 0 30.0766889835666  0.277879341864717 29.412051125989  0.83363802559415 28.8569689592209  L 15.7733089579525 13.9354838709677  C 16.3436928702011 15.3670115642118  17.180987202925 16.6342057212416  18.2851919561243 17.7370663420572  Z M 35.8135283363803 10.1667681071211  C 35.9378427787934 10.3128423615338  36 10.4954351795496  36 10.7145465611686  C 36 11.284236153378  35.8318098720293 12.0584297017651  35.4954296160877 13.0371272063299  C 34.8080438756856 14.9945222154595  33.6051188299817 16.5830797321972  31.8866544789762 17.8027997565429  C 30.1681901279708 19.0225197808886  28.2778793418647 19.6323797930615  26.2157221206581 19.6323797930615  C 23.5100548446069 19.6323797930615  21.1956124314442 18.6719415702982  19.27239488117 16.7510651247718  C 17.3491773308958 14.8301886792453  16.3875685557587 12.5185636031649  16.3875685557587 9.81618989653074  C 16.3875685557587 7.11381618989653  17.3491773308958 4.80219111381619  19.27239488117 2.88131466828971  C 21.1956124314442 0.960438222763235  23.5100548446069 0  26.2157221206581 0  C 27.0639853747715 0  27.9524680073126 0.120511259890446  28.8811700182815 0.361533779671334  C 29.8098720292505 0.602556299452222  30.5959780621572 0.942178940961656  31.2394881170018 1.38040170419964  C 31.473491773309 1.54108338405356  31.5904936014625 1.74558734023128  31.5904936014625 1.99391357273281  C 31.5904936014625 2.24223980523433  31.473491773309 2.44674376141205  31.2394881170018 2.60742544126598  L 24.8117001828154 6.3104077906269  L 24.8117001828154 11.2185027388923  L 29.0457038391225 13.5629945222155  C 29.1188299817185 13.5191722458917  29.6965265082267 13.164942178941  30.7787934186472 12.5003043213634  C 31.8610603290676 11.8356664637858  32.8519195612431 11.2440657334145  33.7513711151737 10.7255021302495  C 34.6508226691042 10.2069385270846  35.1663619744059 9.94765672550213  35.2979890310786 9.94765672550213  C 35.5173674588665 9.94765672550213  35.6892138939671 10.0206938527085  35.8135283363803 10.1667681071211  Z " fill-rule="nonzero" fill="#000000" stroke="none" transform="matrix(1 0 0 1 1183 541 )" />
  </g>
</svg>