<?xml version="1.0" encoding="utf-8"?>
<svg version="1.1" xmlns:xlink="http://www.w3.org/1999/xlink" width="22px" height="26px" xmlns="http://www.w3.org/2000/svg">
  <g transform="matrix(1 0 0 1 -1029 -242 )">
    <path d="M 16.5572916666667 0.986607142857144  L 21.0260416666667 5.51339285714286  C 21.2934027777778 5.78422619047619  21.5225694444444 6.15178571428572  21.7135416666667 6.61607142857143  C 21.9045138888889 7.08035714285714  22 7.50595238095238  22 7.89285714285714  L 22 24.6071428571429  C 22 24.9940476190476  21.8663194444444 25.3229166666667  21.5989583333333 25.59375  C 21.3315972222222 25.8645833333333  21.0069444444444 26  20.625 26  L 1.375 26  C 0.993055555555556 26  0.668402777777778 25.8645833333333  0.401041666666667 25.59375  C 0.133680555555556 25.3229166666667  0 24.9940476190476  0 24.6071428571429  L 0 1.39285714285714  C 0 1.00595238095238  0.133680555555556 0.677083333333332  0.401041666666667 0.40625  C 0.668402777777778 0.135416666666668  0.993055555555556 0  1.375 0  L 14.2083333333333 0  C 14.5902777777778 0  15.0104166666667 0.0967261904761916  15.46875 0.290178571428572  C 15.9270833333333 0.483630952380952  16.2899305555556 0.715773809523808  16.5572916666667 0.986607142857144  Z M 15.25390625 2.29241071428572  C 15.1393229166667 2.17633928571428  14.9435763888889 2.06994047619047  14.6666666666667 1.97321428571428  L 14.6666666666667 7.42857142857143  L 20.0520833333333 7.42857142857143  C 19.9565972222222 7.14806547619047  19.8515625 6.94977678571428  19.7369791666667 6.83370535714286  L 15.25390625 2.29241071428572  Z M 2 24  L 20 24  L 20 9.28571428571428  L 14.2083333333333 9.28571428571428  C 13.8263888888889 9.28571428571428  13.5017361111111 9.15029761904762  13.234375 8.87946428571428  C 12.9670138888889 8.60863095238095  12.8333333333333 8.2797619047619  12.8333333333333 7.89285714285714  L 12.8333333333333 2  L 2 2  L 2 24  Z M 7.63411458333333 11.1428571428571  L 3.33723958333333 11.1428571428571  L 3.33723958333333 12.6953125  L 4.33984375 12.6953125  L 6.68880208333333 22.2857142857143  L 8.96614583333333 22.2857142857143  L 10.7994791666667 15.2488839285714  C 10.8663194444444 15.055431547619  10.9140625 14.8329613095238  10.9427083333333 14.5814732142857  C 10.9618055555556 14.4267113095238  10.9713541666667 14.3106398809524  10.9713541666667 14.2332589285714  L 11.0286458333333 14.2332589285714  L 11.0716145833333 14.5814732142857  C 11.0811631944444 14.6104910714286  11.0978732638889 14.7072172619048  11.1217447916667 14.8716517857143  C 11.1456163194444 15.0360863095238  11.171875 15.1618303571429  11.2005208333333 15.2488839285714  L 13.0338541666667 22.2857142857143  L 15.3111979166667 22.2857142857143  L 17.66015625 12.6953125  L 18.6627604166667 12.6953125  L 18.6627604166667 11.1428571428571  L 14.3658854166667 11.1428571428571  L 14.3658854166667 12.6953125  L 15.6549479166667 12.6953125  L 14.2369791666667 19.0502232142857  C 14.1892361111111 19.2436755952381  14.1558159722222 19.4661458333333  14.13671875 19.7176339285714  L 14.1080729166667 20.0223214285714  L 14.05078125 20.0223214285714  C 14.05078125 19.9933035714286  14.0483940972222 19.9618675595238  14.0436197916667 19.9280133928571  C 14.0388454861111 19.8941592261905  14.0316840277778 19.85546875  14.0221354166667 19.8119419642857  C 14.0125868055556 19.7684151785714  14.0078125 19.7369791666667  14.0078125 19.7176339285714  C 13.9982638888889 19.6692708333333  13.9791666666667 19.5677083333333  13.9505208333333 19.4129464285714  C 13.921875 19.2581845238095  13.8980034722222 19.1372767857143  13.87890625 19.0502232142857  L 11.81640625 11.1428571428571  L 10.18359375 11.1428571428571  L 8.12109375 19.0502232142857  C 8.10199652777778 19.1372767857143  8.08051215277778 19.2557663690476  8.056640625 19.4056919642857  C 8.03276909722222 19.5556175595238  8.01605902777778 19.6595982142857  8.00651041666667 19.7176339285714  L 7.94921875 20.0223214285714  L 7.89192708333333 20.0223214285714  L 7.86328125 19.7176339285714  C 7.84418402777778 19.4661458333333  7.81076388888889 19.2436755952381  7.76302083333333 19.0502232142857  L 6.34505208333333 12.6953125  L 7.63411458333333 12.6953125  L 7.63411458333333 11.1428571428571  Z " fill-rule="nonzero" fill="#555555" stroke="none" transform="matrix(1 0 0 1 1029 242 )" />
  </g>
</svg>