<?xml version="1.0" encoding="utf-8"?>
<svg version="1.1" xmlns:xlink="http://www.w3.org/1999/xlink" width="31px" height="21px" xmlns="http://www.w3.org/2000/svg">
  <g transform="matrix(1 0 0 1 -1185 -302 )">
    <path d="M 24.2833333333333 16.8  L 6.71666666666667 16.8  C 6.00625 16.8  5.39809027777778 16.54296875  4.8921875 16.02890625  C 4.38628472222222 15.51484375  4.13333333333333 14.896875  4.13333333333333 14.175  L 4.13333333333333 2.625  C 4.13333333333333 1.903125  4.38628472222222 1.28515625  4.8921875 0.77109375  C 5.39809027777778 0.257031249999997  6.00625 0  6.71666666666667 0  L 24.2833333333333 0  C 24.99375 0  25.6019097222222 0.257031249999997  26.1078125 0.77109375  C 26.6137152777778 1.28515625  26.8666666666667 1.903125  26.8666666666667 2.625  L 26.8666666666667 14.175  C 26.8666666666667 14.896875  26.6137152777778 15.51484375  26.1078125 16.02890625  C 25.6019097222222 16.54296875  24.99375 16.8  24.2833333333333 16.8  Z M 6.35338541666667 2.255859375  C 6.25112847222222 2.359765625  6.2 2.4828125  6.2 2.625  L 6.2 14.175  C 6.2 14.3171875  6.25112847222222 14.440234375  6.35338541666667 14.544140625  C 6.45564236111111 14.648046875  6.57673611111111 14.7  6.71666666666667 14.7  L 24.2833333333333 14.7  C 24.4232638888889 14.7  24.5443576388889 14.648046875  24.6466145833333 14.544140625  C 24.7488715277778 14.440234375  24.8 14.3171875  24.8 14.175  L 24.8 2.625  C 24.8 2.4828125  24.7488715277778 2.359765625  24.6466145833333 2.255859375  C 24.5443576388889 2.151953125  24.4232638888889 2.1  24.2833333333333 2  L 6.71666666666667 2  C 6.57673611111111 2.1  6.45564236111111 2.151953125  6.35338541666667 2.255859375  Z M 2.58333333333333 17.85  L 28.4166666666667 17.85  L 31 17.85  L 31 19.425  C 31 19.8625  30.7470486111111 20.234375  30.2411458333333 20.540625  C 29.7352430555556 20.846875  29.1270833333333 21  28.4166666666667 21  L 2.58333333333333 21  C 1.87291666666667 21  1.26475694444444 20.846875  0.758854166666667 20.540625  C 0.252951388888889 20.234375  0 19.8625  0 19.425  L 0 17.85  L 2.58333333333333 17.85  Z M 14.2083333333333 19.425  L 16.7916666666667 19.425  C 16.9638888888889 19.425  17.05 19.3375  17.05 19.1625  C 17.05 18.9875  16.9638888888889 18.9  16.7916666666667 18.9  L 14.2083333333333 18.9  C 14.0361111111111 18.9  13.95 18.9875  13.95 19.1625  C 13.95 19.3375  14.0361111111111 19.425  14.2083333333333 19.425  Z " fill-rule="nonzero" fill="#000000" stroke="none" transform="matrix(1 0 0 1 1185 302 )" />
  </g>
</svg>