<?xml version="1.0" encoding="utf-8"?>
<svg version="1.1" xmlns:xlink="http://www.w3.org/1999/xlink" width="23px" height="21px" xmlns="http://www.w3.org/2000/svg">
  <g transform="matrix(1 0 0 1 -397 -260 )">
    <path d="M 19.1712740384615 13.125  C 19.3647836538462 13.20703125  19.4615384615385 13.3391927083333  19.4615384615385 13.521484375  L 19.4615384615385 17.0625  C 19.4615384615385 18.1471354166667  19.0722155448718 19.0745442708333  18.2935697115385 19.8447265625  C 17.5149238782051 20.6149088541667  16.5773237179487 21  15.4807692307692 21  L 3.98076923076923 21  C 2.88421474358974 21  1.94661458333333 20.6149088541667  1.16796875 19.8447265625  C 0.389322916666667 19.0745442708333  0 18.1471354166667  0 17.0625  L 0 5.6875  C 0 4.60286458333333  0.389322916666667 3.67545572916667  1.16796875 2.9052734375  C 1.94661458333333 2.13509114583333  2.88421474358974 1.75  3.98076923076923 1.75  L 7.50540865384615 1.75  C 7.62520032051282 1.75  7.72886618589744 1.79329427083333  7.81640625 1.8798828125  C 7.90394631410256 1.96647135416666  7.94771634615385 2.06901041666666  7.94771634615385 2.1875  C 7.94771634615385 2.43359375  7.82792467948718 2.57942708333333  7.58834134615385 2.625  C 6.87880608974359 2.86197916666667  6.26602564102564 3.13541666666666  5.75 3.4453125  C 5.65785256410256 3.48177083333333  5.58413461538462 3.5  5.52884615384615 3.5  L 3.98076923076923 3.5  C 3.37259615384615 3.5  2.85196314102564 3.71419270833333  2.41887019230769 4.142578125  C 1.98577724358974 4.57096354166667  1.76923076923077 5.0859375  2 5.6875  L 2 17.0625  C 1.76923076923077 17.6640625  1.98577724358974 18.1790364583333  2.41887019230769 18.607421875  C 2.85196314102564 19.0358072916667  3.37259615384615 19.25  3.98076923076923 19  L 15.4807692307692 19  C 16.0889423076923 19.25  16.6095753205128 19.0358072916667  17.0426682692308 18.607421875  C 17.4757612179487 18.1790364583333  17.6923076923077 17.6640625  17.6923076923077 17.0625  L 17.6923076923077 14.13671875  C 17.6923076923077 13.9635416666667  17.7752403846154 13.8313802083333  17.9411057692308 13.740234375  C 18.1991185897436 13.6217447916667  18.4479166666667 13.453125  18.6875 13.234375  C 18.8349358974359 13.0885416666667  18.9961939102564 13.0520833333333  19.1712740384615 13.125  Z M 23 6.125  C 23 6.36197916666667  22.9124599358974 6.56705729166667  22.7373798076923 6.740234375  L 17.4296875 11.990234375  C 17.2638221153846 12.1634114583333  17.0564903846154 12.25  16.8076923076923 12.25  C 16.6971153846154 12.25  16.5819310897436 12.2272135416667  16.4621394230769 12.181640625  C 16.1027644230769 12.0266927083333  15.9230769230769 11.7578125  15.9230769230769 11.375  L 15.9230769230769 8.75  L 13.7115384615385 8.75  C 10.7351762820513 8.75  8.71714743589744 9.34700520833333  7.65745192307692 10.541015625  C 6.56089743589744 11.7897135416667  6.21995192307692 13.9453125  6.63461538461538 17.0078125  C 6.66225961538462 17.2174479166667  6.57011217948718 17.3723958333333  6.35817307692308 17.47265625  C 6.28445512820513 17.4908854166667  6.22916666666667 17.5  6.19230769230769 17.5  C 6.04487179487179 17.5  5.92508012820513 17.4407552083333  5.83293269230769 17.322265625  C 5.74078525641026 17.1946614583333  5.64403044871795 17.0533854166667  5.54266826923077 16.8984375  C 5.44130608974359 16.7434895833333  5.25931490384616 16.4313151041667  4.99669471153846 15.9619140625  C 4.73407451923077 15.4925130208333  4.50600961538462 15.0390625  4.3125 14.6015625  C 4.11899038461539 14.1640625  3.94160657051282 13.64453125  3.78034855769231 13.04296875  C 3.6190905448718 12.44140625  3.53846153846154 11.8854166666667  3.53846153846154 11.375  C 3.53846153846154 10.9283854166667  3.55458733974359 10.513671875  3.58683894230769 10.130859375  C 3.6190905448718 9.748046875  3.68359375 9.337890625  3.78034855769231 8.900390625  C 3.87710336538462 8.462890625  4.00610977564103 8.06184895833333  4.16736778846154 7.697265625  C 4.32862580128205 7.33268229166667  4.54517227564103 6.96126302083333  4.81700721153846 6.5830078125  C 5.0888421474359 6.20475260416667  5.40444711538462 5.86751302083333  5.76382211538462 5.5712890625  C 6.12319711538462 5.27506510416667  6.55859375 4.99479166666667  7.07001201923077 4.73046875  C 7.58143028846154 4.46614583333333  8.15504807692308 4.2451171875  8.79086538461538 4.0673828125  C 9.42668269230769 3.8896484375  10.1615584935897 3.75065104166666  10.9954927884615 3.650390625  C 11.8294270833333 3.55013020833333  12.7347756410256 3.5  13.7115384615385 3.5  L 15.9230769230769 3.5  L 15.9230769230769 0.874999999999999  C 15.9230769230769 0.4921875  16.1027644230769 0.223307291666665  16.4621394230769 0.0683593750000008  C 16.5819310897436 0.0227864583333351  16.6971153846154 0  16.8076923076923 0  C 17.0472756410256 0  17.2546073717949 0.086588541666668  17.4296875 0.259765624999999  L 22.7373798076923 5.509765625  C 22.9124599358974 5.68294270833333  23 5.88802083333333  23 6.125  Z " fill-rule="nonzero" fill="#000000" stroke="none" transform="matrix(1 0 0 1 397 260 )" />
  </g>
</svg>