<?xml version="1.0" encoding="utf-8"?>
<svg version="1.1" xmlns:xlink="http://www.w3.org/1999/xlink" width="29px" height="29px" xmlns="http://www.w3.org/2000/svg">
  <g transform="matrix(1 0 0 1 -116 -598 )">
    <path d="M 19.654296875 5.607421875  C 18.0809461805556 4.68858506944444  16.3628472222222 4.22916666666667  14.5 4.22916666666667  C 12.6371527777778 4.22916666666667  10.9190538194444 4.68858506944444  9.345703125 5.607421875  C 7.77235243055556 6.52625868055555  6.52625868055556 7.77235243055555  5.607421875 9.345703125  C 4.68858506944444 10.9190538194444  4.22916666666667 12.6371527777778  4.22916666666667 14.5  C 4.22916666666667 16.3628472222222  4.68858506944444 18.0809461805556  5.607421875 19.654296875  C 6.52625868055556 21.2276475694444  7.77235243055556 22.4737413194444  9.345703125 23.392578125  C 10.9190538194444 24.3114149305556  12.6371527777778 24.7708333333333  14.5 24.7708333333333  C 16.3628472222222 24.7708333333333  18.0809461805556 24.3114149305556  19.654296875 23.392578125  C 21.2276475694444 22.4737413194444  22.4737413194444 21.2276475694444  23.392578125 19.654296875  C 24.3114149305556 18.0809461805556  24.7708333333333 16.3628472222222  24.7708333333333 14.5  C 24.7708333333333 12.6371527777778  24.3114149305556 10.9190538194444  23.392578125 9.345703125  C 22.4737413194444 7.77235243055555  21.2276475694444 6.52625868055555  19.654296875 5.607421875  Z M 27.0553385416667 7.2216796875  C 28.3517795138889 9.44325086805555  29 11.8693576388889  29 14.5  C 29 17.1306423611111  28.3517795138889 19.5567491319444  27.0553385416667 21.7783203125  C 25.7588975694444 23.9998914930556  23.9998914930556 25.7588975694444  21.7783203125 27.0553385416667  C 19.5567491319444 28.3517795138889  17.1306423611111 29  14.5 29  C 11.8693576388889 29  9.44325086805556 28.3517795138889  7.2216796875 27.0553385416667  C 5.00010850694444 25.7588975694444  3.24110243055556 23.9998914930556  1.94466145833333 21.7783203125  C 0.648220486111111 19.5567491319444  0 17.1306423611111  0 14.5  C 0 11.8693576388889  0.648220486111111 9.44325086805555  1.94466145833333 7.2216796875  C 3.24110243055556 5.00010850694444  5.00010850694444 3.24110243055555  7.2216796875 1.94466145833333  C 9.44325086805556 0.648220486111109  11.8693576388889 0  14.5 0  C 17.1306423611111 0  19.5567491319444 0.648220486111109  21.7783203125 1.94466145833333  C 23.9998914930556 3.24110243055555  25.7588975694444 5.00010850694444  27.0553385416667 7.2216796875  Z " fill-rule="nonzero" fill="#000000" stroke="none" transform="matrix(1 0 0 1 116 598 )" />
  </g>
</svg>