<?xml version="1.0" encoding="utf-8"?>
<svg version="1.1" xmlns:xlink="http://www.w3.org/1999/xlink" width="30px" height="17px" xmlns="http://www.w3.org/2000/svg">
  <g transform="matrix(1 0 0 1 -1129 -604 )">
    <path d="M 20 13.6  L 3.33333333333333 13.6  L 3.33333333333333 3.4  L 20 3.4  L 20 13.6  Z M 28.3333333333333 2.125  L 28.3333333333333 4.25  C 28.7934027777778 4.25  29.1861979166667 4.416015625  29.51171875 4.748046875  C 29.8372395833333 5.080078125  30 5.48072916666666  30 5.95  L 30 11.05  C 30 11.5192708333333  29.8372395833333 11.919921875  29.51171875 12.251953125  C 29.1861979166667 12.583984375  28.7934027777778 12.75  28.3333333333333 12.75  L 28.3333333333333 14.875  C 28.3333333333333 15.459375  28.1293402777778 15.9596354166667  27.7213541666667 16.37578125  C 27.3133680555556 16.7919270833333  26.8229166666667 17  26.25 17  L 2.08333333333333 17  C 1.51041666666667 17  1.01996527777778 16.7919270833333  0.611979166666667 16.37578125  C 0.203993055555556 15.9596354166667  0 15.459375  0 14.875  L 0 2.125  C 0 1.540625  0.203993055555556 1.04036458333333  0.611979166666667 0.62421875  C 1.01996527777778 0.208072916666664  1.51041666666667 0  2.08333333333333 0  L 26.25 0  C 26.8229166666667 0  27.3133680555556 0.208072916666664  27.7213541666667 0.62421875  C 28.1293402777778 1.04036458333333  28.3333333333333 1.540625  28.3333333333333 2.125  Z M 26.6666666666667 11.05  L 28.3333333333333 11.05  L 28.3333333333333 5.95  L 26.6666666666667 5.95  L 26.6666666666667 2.125  C 26.6666666666667 2.00104166666666  26.6276041666667 1.89921875  26.5494791666667 1.81953125  C 26.4713541666667 1.73984375  26.3715277777778 1.7  26.25 2  L 2.08333333333333 2  C 1.96180555555556 1.7  1.86197916666667 1.73984375  1.78385416666667 1.81953125  C 1.70572916666667 1.89921875  1.66666666666667 2.00104166666666  2 2.125  L 2 14.875  C 1.66666666666667 14.9989583333333  1.70572916666667 15.10078125  1.78385416666667 15.18046875  C 1.86197916666667 15.26015625  1.96180555555556 15.3  2.08333333333333 15  L 26.25 15  C 26.3715277777778 15.3  26.4713541666667 15.26015625  26.5494791666667 15.18046875  C 26.6276041666667 15.10078125  26.6666666666667 14.9989583333333  26.6666666666667 14.875  L 26.6666666666667 11.05  Z " fill-rule="nonzero" fill="#000000" stroke="none" transform="matrix(1 0 0 1 1129 604 )" />
  </g>
</svg>