<?xml version="1.0" encoding="utf-8"?>
<svg version="1.1" xmlns:xlink="http://www.w3.org/1999/xlink" width="31px" height="31px" xmlns="http://www.w3.org/2000/svg">
  <g transform="matrix(1 0 0 1 -1055 -597 )">
    <path d="M 29.340211935304 0.190078037904124  C 29.7436326454731 -0.0518394648829466  30.1355270496375 -0.0403195837978496  30.515895147797 0.224637681159421  C 30.8962632459565 0.501114827201782  31.0518683770218 0.869751021924932  30.9827105409927 1.33054626532888  L 26.5566090351366 27.8723522853958  C 26.4989775051125 28.2064288368636  26.3145566090351 28.4656261612783  26.0033463469046 28.6499442586399  C 25.841978062837 28.7421033073207  25.663320319762 28.7881828316611  25.4673731176799 28.7881828316611  C 25.3405837516267 28.7881828316611  25.2022680795687 28.7593831289483  25.0524261015059 28.7017837235229  L 15.9408812046849 24.9866220735786  L 10.7886224205243 30.6371237458194  C 10.5811489124373 30.8790412486065  10.3102807213237 31  9.97601784718349 31  C 9.81464956311582 31  9.68209704406023 30.9769602378298  9.57836029001673 30.9308807134894  C 9.35936047592489 30.8502415458937  9.18646588585239 30.7148829431438  9.05967651979922 30.5248049052397  C 8.93288715374605 30.3347268673356  8.86949247071946 30.1244890375325  8.86949247071946 29.8940914158305  L 8.86949247071946 22.0836120401338  L 0.708867819297267 18.7486064659978  C 0.282394497118424 18.5873281308064  0.0518683770217513 18.2705314009662  0.0172894590072504 17.7982162764771  C -0.0172894590072504 17.3489409141583  0.167131437070087 17.0091044221479  0.570552147239264 16.7787068004459  L 29.340211935304 0.190078037904124  Z M 16.0964863357501 22.6538461538462  L 24.6029001673173 26.1270903010033  L 28.4238706079197 3.26588628762542  L 3.63078639152259 17.5562987736901  L 9.44004461795873 19.9236343366778  L 24.3608477412158 8.88182831661092  L 16.0964863357501 22.6538461538462  Z " fill-rule="nonzero" fill="#000000" stroke="none" transform="matrix(1 0 0 1 1055 597 )" />
  </g>
</svg>