<?xml version="1.0" encoding="utf-8"?>
<svg version="1.1" xmlns:xlink="http://www.w3.org/1999/xlink" width="31px" height="33px" xmlns="http://www.w3.org/2000/svg">
  <g transform="matrix(1 0 0 1 -16 -13 )">
    <path d="M 30.3155570652174 13.2275353016688  C 30.7718523550725 13.7570603337612  31 14.3960205391528  31 15.1444159178434  L 31 17.8555840821566  C 31 18.6039794608472  30.7718523550725 19.2429396662388  30.3155570652174 19.7724646983312  C 29.8592617753623 20.3019897304236  29.2660778985507 20.5667522464698  28.5360054347826 20  L 13.7099184782609 20  L 19.8804347826087 26.7939666238768  C 20.4139492753623 27.3023106546855  20.6807065217391 27.9377406931964  20.6807065217391 28.7002567394095  C 20.6807065217391 29.4627727856226  20.4139492753623 30.0982028241335  19.8804347826087 30.6065468549422  L 18.3009510869565 32.2163029525032  C 17.7814764492754 32.7387676508344  17.1496829710145 33  16.4055706521739 33  C 15.6754981884058 33  15.0366847826087 32.7387676508344  14.4891304347826 32.2163029525032  L 0.779211956521739 18.4062901155327  C 0.25973731884058 17.8838254172015  0 17.2483953786906  0 16.5  C 0 15.7657252888318  0.25973731884058 15.1232349165597  0.779211956521739 14.5725288831836  L 14.4891304347826 0.804878048780489  C 15.0226449275362 0.268292682926827  15.6614583333333 0  16.4055706521739 0  C 17.135643115942 0  17.7674365942029 0.268292682926827  18.3009510869565 0.804878048780489  L 19.8804347826087 2.37227214377407  C 20.4139492753623 2.90885750962773  20.6807065217391 3.55134788189987  20.6807065217391 4.2997432605905  C 20.6807065217391 5.04813863928113  20.4139492753623 5.69062901155327  19.8804347826087 6.22721437740693  L 13.7099184782609 13  L 28.5360054347826 13  C 29.2660778985507 12.4332477535302  29.8592617753623 12.6980102695764  30.3155570652174 13.2275353016688  Z " fill-rule="nonzero" fill="#ffffff" stroke="none" transform="matrix(1 0 0 1 16 13 )" />
  </g>
</svg>